<?xml version="1.0" standalone="no"?>
<!DOCTYPE svg PUBLIC "-//W3C//DTD SVG 20010904//EN"
 "http://www.w3.org/TR/2001/REC-SVG-20010904/DTD/svg10.dtd">
<svg version="1.0" xmlns="http://www.w3.org/2000/svg"
 width="300.000000pt" height="300.000000pt" viewBox="0 0 300.000000 300.000000"
 preserveAspectRatio="xMidYMid meet">
<metadata>
Created by potrace 1.14, written by Peter Selinger 2001-2017
</metadata>
<g transform="translate(0.000000,300.000000) scale(0.100000,-0.100000)"
fill="#000000" stroke="none">
<path d="M1304 2820 c-85 -12 -151 -39 -214 -87 -111 -83 -258 -280 -281 -376
-25 -106 6 -236 97 -399 68 -124 72 -139 43 -180 -12 -18 -160 -172 -328 -342
-215 -217 -301 -311 -289 -314 46 -10 149 85 608 561 l75 78 225 -247 c124
-136 242 -266 263 -290 l38 -43 -80 -118 c-44 -65 -93 -137 -110 -161 -17 -24
-35 -69 -41 -100 -6 -31 -18 -79 -26 -106 -26 -91 -11 -179 45 -267 34 -54
103 -93 197 -111 54 -10 64 -8 112 12 78 34 224 200 281 320 23 49 26 67 26
165 0 135 -22 214 -99 360 -30 55 -56 110 -60 122 -7 21 47 93 191 252 l49 55
217 -320 c246 -362 323 -463 399 -521 63 -48 149 -93 178 -93 26 0 152 30 162
39 3 3 -52 71 -123 151 -108 120 -147 173 -228 310 -55 91 -169 275 -255 410
-117 184 -156 253 -156 277 0 32 60 145 140 263 71 104 92 161 92 245 0 173
-127 312 -267 290 -59 -8 -176 -66 -247 -123 -67 -52 -165 -170 -175 -210 -11
-45 26 -159 123 -378 52 -116 94 -216 94 -223 0 -23 -94 -176 -143 -231 -26
-30 -59 -68 -72 -83 -14 -17 -32 -27 -43 -25 -22 3 -485 536 -510 585 l-15 33
116 192 c112 185 157 281 157 337 0 14 7 35 15 45 19 25 19 50 -1 138 -26 114
-49 127 -180 108z m57 -138 c65 -65 69 -87 30 -181 -17 -42 -42 -110 -56 -151
-14 -41 -36 -86 -49 -100 -13 -14 -49 -64 -79 -113 l-55 -88 -55 88 c-75 120
-87 146 -97 209 -30 186 108 383 269 384 39 0 49 -5 92 -48z m879 -122 c8 -5
11 -12 7 -16 -3 -4 9 -24 28 -45 59 -66 72 -164 31 -242 -14 -25 -24 -59 -24
-75 1 -30 -27 -85 -84 -170 -22 -32 -33 -40 -45 -34 -16 10 -183 421 -183 452
0 30 60 91 115 116 52 25 128 31 155 14z m-577 -1567 c79 -168 101 -235 101
-319 1 -67 -1 -75 -38 -128 -21 -31 -53 -68 -70 -82 -26 -23 -37 -26 -78 -21
-70 9 -104 31 -138 90 -52 90 -56 116 -33 211 33 131 153 366 188 366 6 0 37
-53 68 -117z"/>
<path d="M174 987 c-27 -17 -78 -60 -114 -94 -62 -59 -64 -62 -47 -80 17 -17
22 -13 123 88 109 109 124 143 38 86z"/>
<path d="M471 593 c-33 -23 -48 -62 -54 -144 -7 -89 1 -102 69 -114 35 -5 45
-3 61 15 28 29 43 87 43 162 l0 64 -49 16 c-44 14 -52 14 -70 1z"/>
</g>
</svg>
